<svg xmlns="http://www.w3.org/2000/svg" width="375" viewBox="0 0 375 375" height="375" version="1.0"><defs><clipPath id="a"><path d="M 0 0 L 375 0 L 375 374.765625 L 0 374.765625 Z M 0 0"/></clipPath></defs><g clip-path="url(#a)"><path fill="#98C1D9" d="M 375 187.265625 C 375 190.335938 374.925781 193.402344 374.773438 196.464844 C 374.625 199.53125 374.398438 202.589844 374.097656 205.644531 C 373.796875 208.699219 373.421875 211.742188 372.96875 214.777344 C 372.519531 217.8125 371.996094 220.835938 371.398438 223.84375 C 370.796875 226.855469 370.125 229.847656 369.378906 232.824219 C 368.636719 235.800781 367.816406 238.757812 366.925781 241.695312 C 366.035156 244.632812 365.074219 247.542969 364.039062 250.433594 C 363.003906 253.320312 361.902344 256.183594 360.726562 259.019531 C 359.554688 261.855469 358.308594 264.660156 356.996094 267.433594 C 355.6875 270.207031 354.304688 272.945312 352.859375 275.652344 C 351.414062 278.359375 349.902344 281.027344 348.324219 283.660156 C 346.746094 286.292969 345.105469 288.882812 343.402344 291.4375 C 341.695312 293.988281 339.929688 296.496094 338.101562 298.960938 C 336.273438 301.425781 334.386719 303.84375 332.4375 306.214844 C 330.492188 308.585938 328.488281 310.910156 326.429688 313.183594 C 324.367188 315.457031 322.253906 317.679688 320.082031 319.847656 C 317.914062 322.019531 315.691406 324.132812 313.417969 326.195312 C 311.144531 328.253906 308.820312 330.257812 306.449219 332.207031 C 304.078125 334.152344 301.660156 336.039062 299.195312 337.867188 C 296.730469 339.695312 294.222656 341.460938 291.667969 343.167969 C 289.117188 344.871094 286.527344 346.511719 283.894531 348.089844 C 281.261719 349.667969 278.59375 351.179688 275.886719 352.625 C 273.179688 354.074219 270.441406 355.453125 267.667969 356.765625 C 264.890625 358.074219 262.089844 359.320312 259.253906 360.492188 C 256.417969 361.667969 253.554688 362.773438 250.667969 363.804688 C 247.777344 364.839844 244.863281 365.800781 241.929688 366.691406 C 238.992188 367.582031 236.035156 368.402344 233.058594 369.148438 C 230.082031 369.894531 227.089844 370.566406 224.078125 371.164062 C 221.070312 371.761719 218.046875 372.285156 215.011719 372.738281 C 211.976562 373.1875 208.933594 373.5625 205.878906 373.863281 C 202.824219 374.164062 199.765625 374.390625 196.699219 374.539062 C 193.636719 374.691406 190.570312 374.765625 187.5 374.765625 C 184.429688 374.765625 181.363281 374.691406 178.300781 374.539062 C 175.234375 374.390625 172.175781 374.164062 169.121094 373.863281 C 166.066406 373.5625 163.023438 373.1875 159.988281 372.738281 C 156.953125 372.285156 153.929688 371.761719 150.921875 371.164062 C 147.910156 370.566406 144.917969 369.894531 141.941406 369.148438 C 138.964844 368.402344 136.007812 367.582031 133.070312 366.691406 C 130.136719 365.800781 127.222656 364.839844 124.332031 363.804688 C 121.445312 362.773438 118.582031 361.667969 115.746094 360.492188 C 112.910156 359.320312 110.105469 358.074219 107.332031 356.765625 C 104.558594 355.453125 101.820312 354.074219 99.113281 352.625 C 96.40625 351.179688 93.738281 349.667969 91.105469 348.089844 C 88.472656 346.511719 85.882812 344.871094 83.332031 343.167969 C 80.777344 341.460938 78.269531 339.695312 75.804688 337.867188 C 73.339844 336.039062 70.921875 334.152344 68.550781 332.207031 C 66.179688 330.257812 63.855469 328.253906 61.582031 326.195312 C 59.308594 324.132812 57.085938 322.019531 54.917969 319.847656 C 52.746094 317.679688 50.632812 315.457031 48.570312 313.183594 C 46.511719 310.910156 44.507812 308.585938 42.558594 306.214844 C 40.613281 303.84375 38.726562 301.425781 36.898438 298.960938 C 35.070312 296.496094 33.304688 293.988281 31.597656 291.4375 C 29.894531 288.882812 28.253906 286.292969 26.675781 283.660156 C 25.097656 281.027344 23.585938 278.359375 22.140625 275.652344 C 20.691406 272.945312 19.3125 270.207031 18.003906 267.433594 C 16.691406 264.660156 15.445312 261.855469 14.273438 259.019531 C 13.097656 256.183594 11.996094 253.320312 10.960938 250.433594 C 9.925781 247.542969 8.964844 244.632812 8.074219 241.695312 C 7.183594 238.757812 6.363281 235.800781 5.617188 232.824219 C 4.875 229.847656 4.203125 226.855469 3.601562 223.84375 C 3.003906 220.835938 2.480469 217.8125 2.03125 214.777344 C 1.578125 211.742188 1.203125 208.699219 0.902344 205.644531 C 0.601562 202.589844 0.375 199.53125 0.226562 196.464844 C 0.0742188 193.402344 0 190.335938 0 187.265625 C 0 184.199219 0.0742188 181.132812 0.226562 178.066406 C 0.375 175 0.601562 171.941406 0.902344 168.886719 C 1.203125 165.835938 1.578125 162.789062 2.03125 159.753906 C 2.480469 156.71875 3.003906 153.695312 3.601562 150.6875 C 4.203125 147.675781 4.875 144.683594 5.617188 141.707031 C 6.363281 138.730469 7.183594 135.773438 8.074219 132.835938 C 8.964844 129.902344 9.925781 126.988281 10.960938 124.097656 C 11.996094 121.210938 13.097656 118.347656 14.273438 115.511719 C 15.445312 112.679688 16.691406 109.875 18.003906 107.101562 C 19.3125 104.324219 20.691406 101.585938 22.140625 98.878906 C 23.585938 96.171875 25.097656 93.503906 26.675781 90.871094 C 28.253906 88.238281 29.894531 85.648438 31.597656 83.097656 C 33.304688 80.546875 35.070312 78.039062 36.898438 75.574219 C 38.726562 73.109375 40.613281 70.691406 42.558594 68.316406 C 44.507812 65.945312 46.511719 63.621094 48.570312 61.347656 C 50.632812 59.074219 52.746094 56.855469 54.917969 54.683594 C 57.085938 52.515625 59.308594 50.398438 61.582031 48.339844 C 63.855469 46.277344 66.179688 44.273438 68.550781 42.328125 C 70.921875 40.378906 73.339844 38.492188 75.804688 36.664062 C 78.269531 34.835938 80.777344 33.070312 83.332031 31.367188 C 85.882812 29.660156 88.472656 28.019531 91.105469 26.441406 C 93.738281 24.863281 96.40625 23.351562 99.113281 21.90625 C 101.820312 20.460938 104.558594 19.082031 107.332031 17.769531 C 110.105469 16.457031 112.910156 15.214844 115.746094 14.039062 C 118.582031 12.863281 121.445312 11.761719 124.332031 10.726562 C 127.222656 9.691406 130.136719 8.730469 133.070312 7.839844 C 136.007812 6.949219 138.964844 6.132812 141.941406 5.386719 C 144.917969 4.640625 147.910156 3.96875 150.921875 3.367188 C 153.929688 2.769531 156.953125 2.246094 159.988281 1.796875 C 163.023438 1.34375 166.066406 0.96875 169.121094 0.667969 C 172.175781 0.367188 175.234375 0.144531 178.300781 -0.0078125 C 181.363281 -0.160156 184.429688 -0.234375 187.5 -0.234375 C 190.570312 -0.234375 193.636719 -0.160156 196.699219 -0.0078125 C 199.765625 0.144531 202.824219 0.367188 205.878906 0.667969 C 208.933594 0.96875 211.976562 1.34375 215.011719 1.796875 C 218.046875 2.246094 221.070312 2.769531 224.078125 3.367188 C 227.089844 3.96875 230.082031 4.640625 233.058594 5.386719 C 236.035156 6.132812 238.992188 6.949219 241.929688 7.839844 C 244.863281 8.730469 247.777344 9.691406 250.667969 10.726562 C 253.554688 11.761719 256.417969 12.863281 259.253906 14.039062 C 262.089844 15.214844 264.890625 16.457031 267.667969 17.769531 C 270.441406 19.082031 273.179688 20.460938 275.886719 21.90625 C 278.59375 23.351562 281.261719 24.863281 283.894531 26.441406 C 286.527344 28.019531 289.117188 29.660156 291.667969 31.367188 C 294.222656 33.070312 296.730469 34.835938 299.195312 36.664062 C 301.660156 38.492188 304.078125 40.378906 306.449219 42.328125 C 308.820312 44.273438 311.144531 46.277344 313.417969 48.339844 C 315.691406 50.398438 317.914062 52.515625 320.082031 54.683594 C 322.253906 56.855469 324.367188 59.074219 326.429688 61.347656 C 328.488281 63.621094 330.492188 65.945312 332.4375 68.316406 C 334.386719 70.691406 336.273438 73.109375 338.101562 75.574219 C 339.929688 78.039062 341.695312 80.546875 343.402344 83.097656 C 345.105469 85.648438 346.746094 88.238281 348.324219 90.871094 C 349.902344 93.503906 351.414062 96.171875 352.859375 98.878906 C 354.304688 101.585938 355.6875 104.324219 356.996094 107.101562 C 358.308594 109.875 359.554688 112.679688 360.726562 115.511719 C 361.902344 118.347656 363.003906 121.210938 364.039062 124.097656 C 365.074219 126.988281 366.035156 129.902344 366.925781 132.835938 C 367.816406 135.773438 368.636719 138.730469 369.378906 141.707031 C 370.125 144.683594 370.796875 147.675781 371.398438 150.6875 C 371.996094 153.695312 372.519531 156.71875 372.96875 159.753906 C 373.421875 162.789062 373.796875 165.835938 374.097656 168.886719 C 374.398438 171.941406 374.625 175 374.773438 178.066406 C 374.925781 181.132812 375 184.199219 375 187.265625 Z M 375 187.265625"/></g><g fill="#3D5A80"><g><g><path d="M 25.953125 -246.25 C 43.359375 -246.957031 58.519531 -245.351562 71.4375 -241.4375 C 84.363281 -237.519531 95.050781 -231.691406 103.5 -223.953125 C 111.945312 -216.222656 118.257812 -206.8125 122.4375 -195.71875 C 126.613281 -184.625 128.703125 -172.359375 128.703125 -158.921875 C 128.703125 -147.421875 127.195312 -136.785156 124.1875 -127.015625 C 121.1875 -117.242188 116.609375 -108.617188 110.453125 -101.140625 C 104.296875 -93.660156 96.5625 -87.476562 87.25 -82.59375 C 77.9375 -77.707031 66.96875 -74.398438 54.34375 -72.671875 L 54.34375 0 L 25.953125 0 Z M 54.34375 -101.515625 C 60.863281 -102.128906 66.867188 -103.734375 72.359375 -106.328125 C 77.859375 -108.921875 82.59375 -112.609375 86.5625 -117.390625 C 90.53125 -122.179688 93.632812 -128.007812 95.875 -134.875 C 98.113281 -141.75 99.234375 -149.765625 99.234375 -158.921875 C 99.234375 -168.078125 98.113281 -176.085938 95.875 -182.953125 C 93.632812 -189.828125 90.53125 -195.65625 86.5625 -200.4375 C 82.59375 -205.226562 77.859375 -208.921875 72.359375 -211.515625 C 66.867188 -214.109375 60.863281 -215.710938 54.34375 -216.328125 Z M 54.34375 -101.515625" transform="translate(47.426 313.28)"/></g></g><g><g><path d="M 25.34375 -36.484375 C 30.332031 -33.535156 35.546875 -30.890625 40.984375 -28.546875 C 46.429688 -26.203125 52.410156 -25.03125 58.921875 -25.03125 C 62.890625 -25.03125 66.707031 -25.585938 70.375 -26.703125 C 74.039062 -27.828125 77.25 -29.5625 80 -31.90625 C 82.75 -34.25 84.9375 -37.222656 86.5625 -40.828125 C 88.1875 -44.441406 89 -48.742188 89 -53.734375 C 89 -57.097656 88.566406 -60.5625 87.703125 -64.125 C 86.835938 -67.6875 85.410156 -71.523438 83.421875 -75.640625 C 81.441406 -79.765625 78.847656 -84.269531 75.640625 -89.15625 C 72.441406 -94.039062 68.445312 -99.484375 63.65625 -105.484375 L 43.96875 -130.375 C 39.082031 -136.582031 34.929688 -142.484375 31.515625 -148.078125 C 28.109375 -153.679688 25.335938 -159.050781 23.203125 -164.1875 C 21.066406 -169.332031 19.515625 -174.269531 18.546875 -179 C 17.578125 -183.726562 17.09375 -188.382812 17.09375 -192.96875 C 17.09375 -200.601562 18.3125 -207.648438 20.75 -214.109375 C 23.195312 -220.578125 26.757812 -226.175781 31.4375 -230.90625 C 36.125 -235.632812 41.800781 -239.320312 48.46875 -241.96875 C 55.132812 -244.613281 62.691406 -245.9375 71.140625 -245.9375 C 77.859375 -245.9375 84.625 -245.046875 91.4375 -243.265625 C 98.257812 -241.484375 104.925781 -238.660156 111.4375 -234.796875 L 99.234375 -211.140625 C 95.671875 -213.273438 91.828125 -215.128906 87.703125 -216.703125 C 83.578125 -218.285156 79.023438 -219.078125 74.046875 -219.078125 C 65.703125 -219.078125 59.035156 -216.707031 54.046875 -211.96875 C 49.054688 -207.238281 46.5625 -200.550781 46.5625 -191.90625 C 46.5625 -189.5625 46.816406 -187.140625 47.328125 -184.640625 C 47.835938 -182.148438 48.726562 -179.425781 50 -176.46875 C 51.269531 -173.519531 53 -170.265625 55.1875 -166.703125 C 57.375 -163.140625 60.148438 -159.125 63.515625 -154.65625 L 92.0625 -117.09375 C 95.71875 -112.207031 99.175781 -107.445312 102.4375 -102.8125 C 105.695312 -98.1875 108.492188 -93.457031 110.828125 -88.625 C 113.171875 -83.789062 115.03125 -78.703125 116.40625 -73.359375 C 117.78125 -68.015625 118.46875 -62.238281 118.46875 -56.03125 C 118.46875 -46.863281 116.988281 -38.640625 114.03125 -31.359375 C 111.082031 -24.085938 106.960938 -17.90625 101.671875 -12.8125 C 96.378906 -7.726562 90.09375 -3.835938 82.8125 -1.140625 C 75.539062 1.554688 67.578125 2.90625 58.921875 2.90625 C 49.972656 2.90625 41.425781 1.582031 33.28125 -1.0625 C 25.132812 -3.707031 18.113281 -7.066406 12.21875 -11.140625 Z M 25.34375 -36.484375" transform="translate(190.016 313.28)"/></g></g></g></svg>